<svg xmlns="http://www.w3.org/2000/svg" viewBox="0 0 669 180.12"><defs><style>.cls-1{fill:#fcfcfc;}</style></defs><g id="Layer_2" data-name="Layer 2"><g id="Layer_1-2" data-name="Layer 1"><path class="cls-1" d="M66.49,180.12H0V0H82.16q34.29,50.34,68.57,100.67V0h68.58V180.12H140.94L66.49,75.2Z"/><path class="cls-1" d="M450.49,0h74.45l32.82,70.79Q575.63,35.39,593.51,0H669L594,126.14v54H524.45v-54Z"/><path class="cls-1" d="M383.88,0H237.43V180.12H384.37c45.64-4.87,80.68-43,81.79-87.78C467.32,45.72,431.42,4.84,383.88,0Zm1.39,114.05a37.17,37.17,0,0,1-31.82,17.72H306V44.83l47.59.19a36.89,36.89,0,0,1,30.9,16.54,49.32,49.32,0,0,1,.78,52.49Z"/></g></g></svg>