<svg width="24" height="20" viewBox="0 0 24 20" fill="none" xmlns="http://www.w3.org/2000/svg">
<path fill-rule="evenodd" clip-rule="evenodd" d="M1.75143 1.7819C2.87321 0.687674 4.39447 0.0729698 5.98067 0.0729698C7.56686 0.0729698 9.08812 0.687674 10.2099 1.7819L11.9626 3.49063L13.7153 1.7819C14.2671 1.22443 14.9272 0.779771 15.657 0.47387C16.3868 0.16797 17.1718 0.00695497 17.9661 0.000220378C18.7604 -0.00651421 19.5481 0.141167 20.2832 0.434646C21.0184 0.728125 21.6863 1.16152 22.2479 1.70956C22.8096 2.25759 23.2538 2.90928 23.5545 3.6266C23.8553 4.34392 24.0067 5.11251 23.9998 5.88751C23.9929 6.66252 23.8279 7.42842 23.5143 8.14054C23.2008 8.85265 22.7451 9.49671 22.1738 10.0351L11.9626 20L1.75143 10.0351C0.62999 8.94057 0 7.45623 0 5.90852C0 4.36081 0.62999 2.87647 1.75143 1.7819Z" fill="#E7E7E7"/>
</svg>
